<svg width="33" height="35" viewBox="0 0 33 35" fill="none" xmlns="http://www.w3.org/2000/svg">
<path d="M16.768 34.576C13.216 34.576 10.192 33.968 7.696 32.752C5.232 31.504 3.36 29.616 2.08 27.088C0.8 24.56 0.16 21.36 0.16 17.488C0.16 11.792 1.584 7.536 4.432 4.72C7.312 1.872 11.424 0.447997 16.768 0.447997C19.744 0.447997 22.384 0.959997 24.688 1.984C26.992 2.976 28.784 4.48 30.064 6.496C31.376 8.48 32.032 10.96 32.032 13.936H23.632C23.632 12.528 23.344 11.328 22.768 10.336C22.224 9.312 21.44 8.528 20.416 7.984C19.424 7.44 18.208 7.168 16.768 7.168C14.976 7.168 13.504 7.536 12.352 8.272C11.2 9.008 10.352 10.064 9.808 11.44C9.264 12.816 8.992 14.48 8.992 16.432V18.592C8.992 20.544 9.264 22.224 9.808 23.632C10.352 25.008 11.184 26.064 12.304 26.8C13.456 27.504 14.928 27.856 16.72 27.856C18.256 27.856 19.552 27.6 20.608 27.088C21.696 26.576 22.512 25.824 23.056 24.832C23.632 23.808 23.92 22.592 23.92 21.184H32.032C32.032 24.16 31.392 26.64 30.112 28.624C28.864 30.608 27.088 32.096 24.784 33.088C22.512 34.08 19.84 34.576 16.768 34.576Z" fill="white"/>
</svg>
